<svg viewBox="0 0 600 400" xmlns="http://www.w3.org/2000/svg">
<g transform="translate(72, 364)">
<g>
<g>
<path d="M0,-77.75494 L0,-77.75494 L2.4,-128.24826 L4.8,-175.19626 L7.2,-217.31905 L9.6,-253.4872 L12,-282.7562 L14.4,-304.39493 L16.8,-317.9067 L19.2,-323.04282 L21.6,-319.8075 L24,-308.4549 L26.4,-289.47754 L28.8,-263.58722 L31.2,-231.6889 L33.6,-194.84854 L36,-154.25586 L38.4,-111.18375 L40.8,-66.94547 L43.2,-22.851164 L45.6,-19.83475 L48,-59.933784 L50.4,-96.38998 L52.8,-128.30153 L55.2,-154.94646 L57.6,-175.8016 L60,-190.5542 L62.4,-199.10585 L64.8,-201.56898 L67.2,-198.25577 L69.6,-189.66035 L72,-176.43489 L74.4,-159.36055 L76.8,-139.31445 L79.2,-117.23402 L81.6,-94.07995 L84,-70.799225 L86.4,-48.2896 L88.8,-27.366762 L91.2,-8.735449 L93.6,-7.034528 L96,-19.526493 L98.4,-28.488758 L100.8,-33.839756 L103.2,-35.666363 L105.6,-34.215565 L108,-29.879862 L110.4,-23.177103 L112.8,-14.725519 L115.2,-5.2150426 L117.6,-4.6239533 L120,-14.053266 L122.4,-22.35952 L124.8,-28.885603 L127.2,-33.059643 L129.6,-34.42042 L132,-32.638218 L134.4,-27.530313 L136.8,-19.07053 L139.2,-7.3924484 L141.6,-7.213799 L144,-24.311071 L146.4,-43.330704 L148.8,-63.593376 L151.2,-84.33453 L153.6,-104.73343 L156,-123.94471 L158.4,-141.13126 L160.8,-155.49715 L163.2,-166.31943 L165.6,-172.97754 L168,-174.97917 L170.4,-171.98177 L172.8,-163.80856 L175.2,-150.45894 L177.6,-132.11215 L180,-109.12484 L182.4,-82.02192 L184.8,-51.481384 L187.2,-18.31356 L189.6,-16.564627 L192,-52.15929 L194.4,-87.432175 L196.8,-121.33503 L199.2,-152.84454 L201.6,-180.99657 L204,-204.91855 L206.4,-223.85887 L208.8,-237.21219 L211.2,-244.5398 L213.6,-245.5845 L216,-240.27925 L218.4,-228.74945 L220.8,-211.30879 L223.2,-188.44884 L225.6,-160.82274 L228,-129.22368 L230.4,-94.558815 L232.8,-57.81968 L235.2,-20.050026 L237.6,-17.687674 L240,-54.34599 L242.4,-88.92535 L244.8,-120.504845 L247.2,-148.26999 L249.6,-171.53645 L252,-189.76921 L254.4,-202.59625 L256.8,-209.81683 L259.2,-211.40363 L261.6,-207.49937 L264,-198.40768 L266.4,-184.5789 L268.8,-166.59135 L271.2,-145.12878 L273.6,-120.95495 L276,-94.88617 L278.4,-67.76299 L280.8,-40.421864 L283.2,-13.6678295 L285.6,-11.75073 L288,-35.164616 L290.4,-56.002777 L292.8,-73.807205 L295.2,-88.24332 L297.6,-99.10563 L300,-106.31864 L302.4,-109.93309 L304.8,-110.11781 L307.2,-107.14772 L309.6,-101.38842 L312,-93.278175 L314.4,-83.30799 L316.8,-72.00061 L319.2,-59.88927 L321.6,-47.49699 L324,-35.317215 L326.4,-23.796469 L328.8,-13.319629 L331.2,-4.198257 L333.6,-3.337609 L336,-9.144064 L338.4,-13.16427 L340.8,-15.4258175 L343.2,-16.03476 L345.6,-15.166668 L348,-13.055186 L350.4,-9.978644 L352.8,-6.2453256 L355.2,-2.1780744 L357.6,-1.9011245 L360,-5.685935 L362.4,-8.899235 L364.8,-11.304923 L367.2,-12.7175255 L369.6,-13.009259 L372,-12.114323 L374.4,-10.030315 L376.8,-6.816802 L379.2,-2.5911531 L381.6,-2.478082 L384,-8.179925 L386.4,-14.271415 L388.8,-20.48925 L391.2,-26.56211 L393.6,-32.223095 L396,-37.22173 L398.4,-41.335052 L400.8,-44.37729 L403.2,-46.207726 L405.6,-46.736477 L408,-45.92794 L410.4,-43.80178 L412.8,-40.431522 L415.2,-35.940758 L417.6,-30.49723 L420,-24.30509 L422.4,-17.595625 L424.8,-10.616968 L427.2,-3.6231964 L429.6,-3.1366754 L432,-9.42932 L434.4,-15.046889 L436.8,-19.815538 L439.2,-23.602339 L441.6,-26.320282 L444,-27.931171 L446.4,-28.446318 L448.8,-27.924997 L451.2,-26.4708 L453.6,-24.226013 L456,-21.364338 L458.4,-18.082258 L460.8,-14.589476 L463.2,-11.098815 L465.6,-7.8160977 L468,-4.930407 L470.4,-2.6051898 L472.8,-0.9705993 L475.2,-0.117412366 L477.6,-0.09279547 L480,-0.8981074" fill="none" stroke="black" stroke-linejoin="round" stroke-width="2"/>
</g>
</g>
<g>
<g>
<line stroke="black" stroke-width="1" x1="0" x2="0" y1="0" y2="10"/>
<line stroke="black" stroke-width="1" x1="96.14803720993137" x2="96.14803720993137" y1="0" y2="10"/>
<line stroke="black" stroke-width="1" x1="192.29607441986275" x2="192.29607441986275" y1="0" y2="10"/>
<line stroke="black" stroke-width="1" x1="288.4441116297941" x2="288.4441116297941" y1="0" y2="10"/>
<line stroke="black" stroke-width="1" x1="384.5921488397255" x2="384.5921488397255" y1="0" y2="10"/>
</g>
<line stroke="black" stroke-width="1" x1="0" x2="480" y1="0" y2="0"/>
<g>
<text font-size="12" text-anchor="middle" x="0" y="20">
73.4162
</text>
<text font-size="12" text-anchor="middle" x="96.14803720993137" y="20">
2073.4162
</text>
<text font-size="12" text-anchor="middle" x="192.29607441986275" y="20">
4073.4162
</text>
<text font-size="12" text-anchor="middle" x="288.4441116297941" y="20">
6073.4162
</text>
<text font-size="12" text-anchor="middle" x="384.5921488397255" y="20">
8073.4162
</text>
</g>
<text font-size="12" text-anchor="middle" x="240" y="30">

</text>
</g>
<g>
<g>
<line stroke="black" stroke-width="1" x1="0" x2="-10" y1="0" y2="0"/>
<line stroke="black" stroke-width="1" x1="0" x2="-10" y1="-68" y2="-68"/>
<line stroke="black" stroke-width="1" x1="0" x2="-10" y1="-136" y2="-136"/>
<line stroke="black" stroke-width="1" x1="0" x2="-10" y1="-204" y2="-204"/>
<line stroke="black" stroke-width="1" x1="0" x2="-10" y1="-272" y2="-272"/>
<line stroke="black" stroke-width="1" x1="0" x2="-10" y1="-340" y2="-340"/>
</g>
<line stroke="black" stroke-width="1" x1="0" x2="0" y1="0" y2="-340"/>
<g>
<text dominant-baseline="middle" font-size="12" text-anchor="end" x="-15" y="0">
0
</text>
<text dominant-baseline="middle" font-size="12" text-anchor="end" x="-15" y="-68">
0.2
</text>
<text dominant-baseline="middle" font-size="12" text-anchor="end" x="-15" y="-136">
0.4
</text>
<text dominant-baseline="middle" font-size="12" text-anchor="end" x="-15" y="-204">
0.6
</text>
<text dominant-baseline="middle" font-size="12" text-anchor="end" x="-15" y="-272">
0.8
</text>
<text dominant-baseline="middle" font-size="12" text-anchor="end" x="-15" y="-340">
1
</text>
</g>
<text font-size="12" text-anchor="middle" transform="rotate(-90 -36 -170)" x="-36" y="-182">

</text>
</g>
</g>
</svg>